<svg id="Icons" xmlns="http://www.w3.org/2000/svg" viewBox="0 0 288 288"><defs><style>.cls-1{fill:#b9ced9;}.cls-2{fill:#a1bdcc;}.cls-3{fill:#8aadbf;}.cls-4{fill:#789eb2;}.cls-5{fill:none;}.cls-6{fill:#f80000;}.cls-7{fill:#fff;}</style></defs><title>Campaign_Oracle-Database-Appliance-Campaign_Detailed</title><g id="db-logobox"><path class="cls-1" d="M100.5,66.1c-29,0-52.5-4.052-52.5-9.051V154.81c0,5,23.5,9.052,52.5,9.052s52.5-4.053,52.5-9.052V57.052C153,62.051,129.5,66.1,100.5,66.1Z"/><path class="cls-2" d="M48,57.052V154.81c0,5,23.5,9.052,52.5,9.052V66.1C71.505,66.1,48,62.051,48,57.052Z"/><path class="cls-2" d="M145.759,61.642V159.4c4.6-1.345,7.241-2.914,7.241-4.589V57.052C153,58.727,150.36,60.3,145.759,61.642Z"/><ellipse class="cls-3" cx="100.5" cy="57.052" rx="52.5" ry="9.052"/><path class="cls-4" d="M48,118.6c0,5,23.5,9.052,52.5,9.052S153,123.6,153,118.6v7.242c0,5-23.5,9.052-52.5,9.052S48,130.844,48,125.845Z"/><path class="cls-4" d="M153,86.017c0,5-23.5,9.052-52.5,9.052S48,91.016,48,86.017v7.242c0,5,23.5,9.051,52.5,9.051S153,98.258,153,93.259Z"/><rect class="cls-5" width="288" height="288"/><rect class="cls-6" x="114" y="114" width="126" height="126" rx="12" ry="12"/><path class="cls-7" d="M146.676,195.6c-9.351,0-11.1-5.5-10.7-11.75h7.55c0,3.45.15,6.349,4.3,6.349,2.551,0,3.8-1.649,3.8-4.1,0-6.5-15.2-6.9-15.2-17.652,0-5.65,2.7-10.15,11.9-10.15,7.351,0,11,3.3,10.5,10.851h-7.35c0-2.7-.451-5.451-3.5-5.451-2.451,0-3.9,1.35-3.9,3.85,0,6.851,15.2,6.251,15.2,17.6C159.276,194.5,152.426,195.6,146.676,195.6Z"/><path class="cls-7" d="M192.376,195h-10.65c-.651,0-1.4.1-2.151.15a17.123,17.123,0,0,1-2.2.2c-11.15,0-12.551-5.85-12.551-18.4,0-9.55,0-18.651,12.451-18.651s12.452,9.1,12.452,18.651c0,7.75-1.4,11.151-4.4,13.651l.1.1c1.1-.3,3.05-1.251,3.8-1.251h3.149Zm-10.3-18.051c0-9.251-.55-13.251-4.8-13.251s-4.8,4-4.8,13.251c0,9,.55,13,4.8,13S182.075,185.945,182.075,176.945Z"/><path class="cls-7" d="M199.274,195v-36.1h7.551V189h11.3v6Z"/></g></svg>